<svg width="241" height="197" viewBox="0 0 241 197" fill="none" xmlns="http://www.w3.org/2000/svg">
<path d="M62.1384 165.204C142.333 223.192 176.932 171.551 184.207 138.482C189.031 123.591 183.246 98.8993 172.742 83.2895C162.237 67.6797 132.417 65.4947 116.54 73.8639C100.663 82.2332 58.6839 88.7934 40.9598 90.7413C23.2358 92.6892 8.12756 109.865 7.0341 120.561C-1.69926 152.928 13.5242 163.196 27.4472 161.695C41.3703 160.194 53.5993 158.937 62.1384 165.204Z" stroke="#FF8BC2"/>
<path d="M66.8042 151.7C138.714 215.785 177.351 169.084 187.68 137.723C193.831 123.753 190.68 99.2395 182.057 83.0725C173.433 66.9054 144.77 61.8693 128.562 68.4334C112.354 74.9974 71.046 77.2536 53.687 77.409C36.3279 77.5645 19.9902 92.7445 17.8691 103.011C6.19692 133.549 19.9211 144.997 33.5545 144.903C47.188 144.809 59.1565 144.786 66.8042 151.7Z" stroke="#FF8CBF"/>
<path d="M72.3702 139.234C135.598 208.362 177.633 166.872 190.747 137.486C198.089 124.547 197.475 100.481 190.736 83.9711C183.996 67.461 156.756 59.7827 140.417 64.5625C124.078 69.3422 83.8742 67.4972 67.058 65.9537C50.2418 64.4101 32.921 77.5275 29.8478 87.2706C15.5161 115.728 27.6611 128.162 40.8654 129.402C54.0697 130.641 65.6555 131.787 72.3702 139.234Z" stroke="#FF8EBD"/>
<path d="M78.6963 127.877C132.973 200.976 177.755 164.891 193.361 137.711C201.749 125.896 203.549 102.531 198.673 85.8868C193.797 69.2423 168.214 59.1542 151.936 62.192C135.658 65.2297 96.9578 59.5282 80.8471 56.396C64.7365 53.2638 46.6797 64.28 42.7383 73.4159C26.0466 99.5779 36.5562 112.802 49.2037 115.288C61.8512 117.774 72.9427 120.012 78.6963 127.877Z" stroke="#FF8FBB"/>
<path d="M85.6381 117.683C130.821 193.682 177.694 163.119 195.483 138.337C204.766 127.72 208.832 105.289 205.775 88.7111C202.719 72.1331 178.998 59.8872 162.963 61.2449C146.928 62.6027 110.091 53.3266 94.8317 48.7309C79.5725 44.1353 61.024 53.0397 56.3053 61.4961C37.5687 85.1873 46.41 99.0031 58.3864 102.637C70.3629 106.271 80.8601 109.514 85.6381 117.683Z" stroke="#FF90B8"/>
<path d="M93.0482 108.687C129.118 186.528 177.434 161.529 197.083 139.299C207.105 129.936 213.266 108.648 211.965 92.3274C210.664 76.0066 188.973 61.8701 173.351 61.6282C157.729 61.3863 123.075 48.8492 108.794 42.9278C94.5144 37.0065 75.713 43.8156 70.3135 51.5323C49.8579 72.6164 57.0211 86.828 68.2263 91.5017C79.4315 96.1754 89.247 100.328 93.0482 108.687Z" stroke="#FF91B6"/>
<path d="M100.779 100.907C127.836 179.561 176.958 160.095 198.136 140.53C208.742 132.459 216.808 112.499 217.179 96.6136C217.549 80.7283 198.022 64.9797 182.969 63.235C167.916 61.4902 135.719 46.0321 122.527 38.9331C109.334 31.834 90.5102 36.5903 84.5302 43.5193C62.6875 61.8996 68.1853 76.3152 78.5342 81.9121C88.8831 87.509 97.9428 92.4678 100.779 100.907Z" stroke="#FF93B4"/>
<path d="M108.683 94.3451C126.943 172.821 176.255 158.788 198.629 141.962C209.661 135.202 219.429 116.729 221.368 101.443C223.308 86.1568 206.045 69.0817 191.701 65.9453C177.357 62.809 147.846 44.7907 135.83 36.6698C123.815 28.5489 105.186 31.3188 98.729 37.4246C75.8327 53.0437 79.6988 67.4787 89.122 73.8762C98.5451 80.2737 106.788 85.9314 108.683 94.3451Z" stroke="#FF94B1"/>
<path d="M116.617 88.9849C126.4 166.344 175.318 157.58 198.554 143.528C209.859 138.079 221.111 121.224 224.502 106.686C227.893 92.1469 212.958 74.0335 199.447 69.6293C185.937 65.2252 159.292 45.0224 148.521 36.0408C137.75 27.0592 119.523 27.9318 112.693 33.1912C89.0728 46.0306 91.3612 60.3092 99.805 67.3806C108.249 74.452 115.629 80.6969 116.617 88.9849Z" stroke="#FF95AF"/>
<path d="M124.443 84.7947C126.168 160.163 174.142 156.441 197.913 145.159C209.341 141.005 221.852 125.873 226.563 112.212C231.275 98.5513 218.695 79.6865 206.124 74.1484C193.553 68.6103 169.907 46.6079 160.43 36.9297C150.953 27.2516 133.315 26.3361 126.215 30.7384C102.194 40.8166 102.977 54.7743 110.404 62.3906C117.831 70.007 124.317 76.7258 124.443 84.7947Z" stroke="#FF96AD"/>
<path d="M132.03 81.7272C126.203 154.303 172.726 155.343 196.716 146.791C208.122 143.899 221.661 130.565 227.551 117.894C233.44 105.222 223.212 85.8878 211.668 79.3576C200.125 72.8275 179.561 49.4136 171.405 39.2035C163.249 28.9934 146.372 26.4169 139.104 29.9633C114.994 37.3349 114.361 50.8199 120.75 58.8519C127.138 66.8838 132.71 73.9629 132.03 81.7272Z" stroke="#FF97AA"/>
<path d="M139.255 79.7217C126.46 148.785 171.072 154.257 194.977 148.36C206.226 146.684 220.561 135.194 227.478 123.605C234.395 112.015 226.48 92.4831 216.033 85.1083C205.585 77.7334 188.142 53.2941 181.315 42.7149C174.488 32.1356 158.522 28.0406 151.185 30.7436C127.282 35.4965 125.336 48.3721 130.681 56.6918C136.025 65.0115 140.678 72.3385 139.255 79.7217Z" stroke="#FF99A8"/>
<path d="M146.006 78.7037C126.894 143.623 169.186 153.156 192.721 149.808C203.688 149.284 218.587 139.658 226.373 129.223C234.16 118.788 228.492 99.3181 219.19 91.2493C209.887 83.1804 195.555 58.0939 190.046 47.3041C184.537 36.5142 169.613 31.0561 162.301 32.9392C138.881 35.192 135.74 47.3375 140.049 55.8204C144.358 64.3032 148.101 71.7689 146.006 78.7037Z" stroke="#FF9AA6"/>
<path d="M152.18 78.5882C127.457 138.826 167.077 152.014 189.978 151.078C200.546 151.633 215.783 143.862 224.278 134.634C232.774 125.405 229.256 106.241 221.129 97.6302C213.003 89.0189 201.73 63.6505 197.509 52.8025C193.288 41.9544 179.513 35.2984 172.315 36.3952C149.633 36.2947 145.425 47.6063 148.722 56.1328C152.018 64.6593 154.873 72.1586 152.18 78.5882Z" stroke="#FF9BA3"/>
<path d="M157.69 79.2796C128.103 134.399 164.757 150.806 186.782 152.12C196.85 153.668 212.206 147.72 221.247 139.729C230.289 131.738 228.799 113.106 221.861 104.103C214.922 95.0994 206.613 69.7966 203.634 59.0345C200.656 48.2723 188.115 40.5908 181.114 40.944C159.399 38.6618 154.259 49.0539 156.58 57.5109C158.901 65.9678 160.9 73.4017 157.69 79.2796Z" stroke="#FF9CA1"/>
<path d="M162.461 80.6744C128.785 130.337 162.239 149.51 183.175 152.889C192.653 155.336 207.919 151.151 217.346 144.41C226.774 137.669 227.167 119.772 221.41 110.523C215.653 101.274 210.175 76.3626 208.377 65.8204C206.578 55.2782 195.334 46.748 188.604 46.4085C168.059 42.1371 162.129 51.5429 163.524 59.8251C164.918 68.1073 166.104 75.3836 162.461 80.6744Z" stroke="#FF9E9F"/>
<path d="M166.431 82.6624C129.459 126.634 159.54 148.105 179.202 153.345C188.014 156.59 202.996 154.087 212.651 148.588C222.306 143.09 224.418 126.107 219.819 116.754C215.219 107.401 212.406 83.1792 211.712 72.9793C211.018 62.7794 201.11 53.5788 194.717 52.6046C175.515 46.5542 168.941 54.9255 169.469 62.9371C169.996 70.9486 170.423 77.9834 166.431 82.6624Z" stroke="#FF9F9D"/>
<path d="M169.554 85.129C130.081 123.277 156.678 146.574 174.911 153.455C182.996 157.39 197.515 156.468 207.246 152.186C216.977 147.904 220.627 131.99 217.145 122.666C213.664 113.343 213.318 90.0802 213.64 80.3318C213.961 70.5834 205.406 60.8895 199.407 59.3446C181.692 51.739 174.62 59.0466 174.35 66.7018C174.081 74.357 173.809 81.0753 169.554 85.129Z" stroke="#FFA09A"/>
<path d="M171.799 87.9563C130.613 120.247 153.675 144.902 170.354 153.193C177.665 157.706 191.56 158.245 201.223 155.136C210.887 152.028 215.88 137.31 213.462 128.141C211.043 118.971 212.941 96.9041 214.18 87.7022C215.419 78.5003 208.211 68.4863 202.655 66.4393C186.537 57.5119 179.112 63.7452 178.124 70.9697C177.135 78.1941 176.234 84.531 171.799 87.9563Z" stroke="#FFA198"/>
<path d="M173.15 91.0256C131.017 117.524 150.551 143.075 165.584 152.538C172.091 157.517 185.22 159.383 194.681 157.388C204.143 155.392 210.277 141.971 208.854 133.069C207.43 124.167 211.326 103.497 213.375 94.9213C215.424 86.3457 209.538 76.1783 204.461 73.7015C190.02 63.6915 182.386 68.8579 180.762 75.5891C179.138 82.3203 177.682 88.2211 173.15 91.0256Z" stroke="#FFA396"/>
<path d="M173.606 94.219C131.259 115.08 147.329 141.084 160.657 151.478C166.343 156.81 178.585 159.854 187.722 158.899C196.858 157.944 203.925 145.889 203.417 137.356C202.909 128.823 208.539 109.714 211.285 101.829C214.031 93.9437 209.421 83.7809 204.853 80.9487C192.137 70.0969 184.429 74.2211 182.259 80.409C180.09 86.5968 178.156 92.0182 173.606 94.219Z" stroke="#FFA493"/>
<path d="M173.18 97.4207C131.311 112.887 144.033 138.923 155.628 150.007C160.49 155.58 171.746 159.645 180.449 159.643C189.152 159.641 196.939 148.996 197.257 140.92C197.574 132.844 204.667 115.424 207.991 108.276C211.316 101.129 207.919 91.1174 203.877 88.0052C192.902 76.5503 185.251 79.6731 182.627 85.2805C180.004 90.8878 177.675 95.7972 173.18 97.4207Z" stroke="#FFA591"/>
<path d="M171.901 100.52C131.148 110.912 140.687 136.587 150.55 148.126C154.601 153.832 164.797 158.752 172.97 159.606C181.144 160.46 189.442 151.239 190.488 143.695C191.533 136.15 199.806 120.505 203.59 114.127C207.373 107.748 205.109 98.0224 201.601 94.7053C192.354 82.88 184.879 85.0573 181.897 90.0596C178.914 95.062 176.273 99.4387 171.901 100.52Z" stroke="#FFA68F"/>
<path d="M169.808 103.411C130.749 109.12 137.313 134.077 145.478 145.843C148.742 151.579 157.824 157.185 165.389 158.789C172.953 160.392 181.558 152.584 183.228 145.629C184.898 138.674 194.068 124.853 198.191 119.259C202.314 113.665 201.089 104.344 198.113 100.896C190.551 88.9233 183.362 90.2241 180.115 94.61C176.867 98.9959 173.996 102.83 169.808 103.411Z" stroke="#FFA78C"/>
<path d="M166.956 105.996C130.098 107.475 133.935 131.395 140.461 143.17C142.976 148.841 150.916 154.963 157.807 157.203C164.699 159.443 173.415 153.008 175.601 146.687C177.787 140.365 187.576 128.38 191.92 123.569C196.265 118.758 195.973 109.945 193.518 106.437C187.572 94.5274 180.765 95.0329 177.345 98.8032C173.925 102.574 170.905 105.866 166.956 105.996Z" stroke="#FFA98A"/>
<path d="M163.409 108.186C129.185 105.939 130.575 128.545 135.548 140.129C137.362 145.646 144.153 152.115 150.325 154.874C156.497 157.632 165.139 152.509 167.731 146.849C170.324 141.189 180.459 131.013 184.912 126.969C189.365 122.925 189.89 114.707 187.936 111.205C183.511 99.5535 177.171 99.3545 173.667 102.522C170.163 105.69 167.073 108.453 163.409 108.186Z" stroke="#FFAA88"/>
<path d="M159.242 109.901C128.006 104.475 127.255 125.535 130.784 136.744C131.956 142.028 137.613 148.68 143.035 151.838C148.457 154.995 156.855 151.097 159.744 146.112C162.633 141.127 172.857 132.698 177.309 129.391C181.762 126.083 182.982 118.527 181.501 115.095C178.482 103.877 172.675 103.073 169.172 105.662C165.67 108.252 162.583 110.507 159.242 109.901Z" stroke="#FFAB85"/>
<path d="M154.538 111.075C126.558 103.044 123.994 122.376 126.209 133.047C126.805 138.029 131.366 144.708 136.025 148.143C140.684 151.578 148.685 148.802 151.762 144.489C154.84 140.175 164.909 133.401 169.261 130.786C173.614 128.17 175.401 121.326 174.358 118.02C172.608 107.391 167.388 106.086 163.965 108.132C160.542 110.178 157.528 111.957 154.538 111.075Z" stroke="#FFAC83"/>
<path d="M149.387 111.65C124.848 101.609 120.81 119.081 121.858 129.072C121.952 133.695 125.474 140.253 129.373 143.847C133.272 147.442 140.741 145.664 143.904 142.006C147.066 138.348 156.758 133.105 160.92 131.125C165.083 129.144 167.305 123.044 166.659 119.914C166.026 110.005 161.431 108.309 158.159 109.856C154.887 111.404 152.008 112.745 149.387 111.65Z" stroke="#FFAE81"/>
<path d="M143.886 111.583C122.883 100.134 117.719 115.662 117.762 124.857C117.433 129.076 119.991 135.377 123.149 139.016C126.308 142.656 133.132 141.739 136.282 138.706C139.431 135.673 148.548 131.81 152.44 130.398C156.331 128.987 158.859 123.641 158.562 120.73C158.883 111.649 154.933 109.674 151.875 110.775C148.817 111.876 146.127 112.827 143.886 111.583Z" stroke="#FFAF7E"/>
</svg>
