<svg width="371" height="322" viewBox="0 0 371 322" fill="none" xmlns="http://www.w3.org/2000/svg">
<path d="M201.576 1.13467C141.016 -1.75558 128.086 42.596 129.191 65.1331C129.191 104.358 80.0138 95.0678 78.3561 124.486C76.6985 153.905 102.669 152.873 136.927 189.001C171.185 225.129 211.522 210.162 218.152 203.968C224.783 197.775 236.387 175.066 273.408 181.775C310.429 188.485 351.871 173.001 364.579 137.905C377.288 102.81 367.342 82.681 343.582 65.1331C319.822 47.5851 304.351 65.1331 273.408 51.714C242.465 38.295 277.276 4.74748 201.576 1.13467Z" stroke="#C38FFF"/>
<path d="M265.443 147.534C284.247 148.465 288.261 134.169 287.918 126.905C287.918 114.261 303.187 117.256 303.702 107.773C304.216 98.2903 296.153 98.623 285.516 86.9776C274.879 75.3322 262.355 80.1567 260.297 82.1531C258.238 84.1494 254.635 91.4694 243.14 89.3067C231.646 87.144 218.778 92.1349 214.833 103.448C210.887 114.76 213.975 121.248 221.352 126.905C228.729 132.561 233.533 126.905 243.14 131.23C252.748 135.556 241.939 146.369 265.443 147.534Z" stroke="#FF8AC4"/>
<path d="M204.634 13.3746C145.5 6.28316 129.251 48.8647 128.518 71.042C125.356 109.505 77.8964 96.9384 73.9003 125.669C69.9042 154.4 95.4458 155.214 126.117 193.049C156.789 230.884 197.537 219.043 204.536 213.436C211.535 207.829 224.741 186.376 260.492 195.558C296.243 204.74 338.116 192.47 353.403 158.949C368.69 125.428 360.562 104.991 338.685 86.1134C316.807 67.2359 300.226 83.3555 270.974 68.0217C241.723 52.6879 278.552 22.2389 204.634 13.3746Z" stroke="#C48FFE"/>
<path d="M207.008 25.2672C149.628 14.1609 130.271 54.7622 127.765 76.4511C121.566 113.935 76.068 98.281 69.8361 126.165C63.6041 154.05 88.5696 156.642 115.579 195.886C142.588 235.131 183.476 226.386 190.787 221.381C198.098 216.376 212.769 196.274 247.065 207.787C281.362 219.3 323.387 210.214 341.07 178.427C358.753 146.64 352.435 126.034 332.517 105.991C312.598 85.9486 295.049 100.586 267.618 83.4989C240.187 66.412 278.734 39.1501 207.008 25.2672Z" stroke="#C68FFC"/>
<path d="M208.74 36.7664C153.418 21.8532 131.181 60.2838 126.978 81.3632C117.884 117.662 74.5696 99.127 66.2164 126.016C57.8632 152.906 82.1137 157.199 105.412 197.556C128.71 237.912 169.474 232.213 177.04 227.822C184.607 223.43 200.6 204.76 233.273 218.45C265.946 232.141 307.852 226.187 327.739 196.277C347.626 166.367 343.097 145.73 325.197 124.69C307.298 103.649 288.925 116.761 263.427 98.0898C237.929 79.4183 277.892 55.408 208.74 36.7664Z" stroke="#C78FFB"/>
<path d="M209.876 47.83C156.894 29.3375 132.017 65.4277 126.201 85.7844C114.368 120.709 73.4392 99.5102 63.0905 125.268C52.7418 151.025 76.1473 156.933 95.7134 198.105C115.279 239.278 155.664 236.555 163.429 232.783C171.194 229.012 188.363 211.843 219.26 227.548C250.158 243.254 291.681 240.361 313.57 212.454C335.458 184.546 332.686 164.01 316.851 142.14C301.016 120.271 281.964 131.828 258.496 111.746C235.027 91.6645 276.103 70.9456 209.876 47.83Z" stroke="#C98FF9"/>
<path d="M210.465 58.4201C160.079 36.5936 132.812 70.1952 125.477 89.7243C111.076 123.099 72.7103 99.4671 60.5015 123.968C48.2927 148.469 70.7336 155.896 86.5726 197.591C102.412 239.287 142.173 239.452 150.08 236.303C157.986 233.154 176.181 217.542 205.168 235.091C234.154 252.639 275.044 252.718 298.725 226.921C322.406 201.124 321.347 180.817 307.605 158.288C293.863 135.759 274.277 145.741 252.918 124.428C231.558 103.115 273.446 85.7034 210.465 58.4201Z" stroke="#CA8EF8"/>
<path d="M210.558 68.5034C162.999 43.6032 133.602 74.5897 124.848 93.1955C108.062 124.861 72.4135 99.0362 58.4886 122.168C44.5636 145.3 65.9304 154.144 78.0732 196.076C90.216 238.008 129.122 240.956 137.115 238.426C145.108 235.897 164.175 221.888 191.133 241.101C218.091 260.313 258.108 263.256 283.367 239.659C308.626 216.062 309.226 196.106 297.591 173.086C285.956 150.066 265.981 158.467 246.791 136.103C227.602 113.739 270.006 99.6287 210.558 68.5034Z" stroke="#CC8EF6"/>
<path d="M210.21 78.0507C165.681 50.3502 134.418 78.6176 124.353 96.2138C105.376 126.029 72.5752 98.2577 57.0854 119.921C41.5955 141.585 61.7901 151.737 70.2922 193.626C78.7944 235.515 116.626 241.125 124.651 239.209C132.676 237.294 152.462 224.919 177.292 245.609C202.122 266.3 241.042 271.983 267.659 250.658C294.277 229.333 296.472 209.845 286.943 186.5C277.413 163.156 257.19 169.979 240.216 146.748C223.241 123.516 265.872 112.676 210.21 78.0507Z" stroke="#CD8EF5"/>
<path d="M209.476 87.038C168.151 56.8213 135.293 82.2876 124.029 98.7979C103.064 126.639 73.2176 97.1734 56.3201 117.283C39.4226 137.393 58.3582 148.738 63.299 190.314C68.2398 231.89 104.793 240.026 112.797 238.714C120.801 237.402 141.153 226.68 163.774 248.66C186.395 270.64 224.006 278.924 251.761 259.925C279.516 240.925 283.234 222.012 275.794 198.507C268.354 175.002 248.023 180.261 233.291 156.346C218.559 132.43 261.132 124.809 209.476 87.038Z" stroke="#CF8EF3"/>
<path d="M208.414 95.4459C170.44 63.0052 136.258 85.611 123.913 100.969C101.169 126.729 74.3588 95.826 56.2156 114.31C38.0723 132.794 55.674 145.214 57.1552 186.218C58.6365 227.222 93.7242 237.735 101.657 237.012C109.589 236.289 130.354 227.227 150.702 250.305C171.05 273.382 207.16 284.114 235.831 267.475C264.501 250.837 269.661 232.601 264.279 209.094C258.898 185.587 238.594 189.309 226.116 164.89C213.638 140.472 255.881 135.997 208.414 95.4459Z" stroke="#D08EF2"/>
<path d="M207.08 103.26C172.574 68.8933 137.341 88.6014 124.037 102.751C99.7304 126.342 76.0129 94.2593 56.7892 111.059C37.5654 127.86 53.7702 141.231 51.9149 181.417C50.0596 221.603 83.5102 234.334 91.3222 234.181C99.1343 234.029 120.161 226.623 138.192 250.604C156.223 274.586 190.656 287.601 220.021 273.341C249.387 259.08 255.899 241.616 252.533 218.26C249.166 194.905 229.019 197.123 218.789 172.381C208.559 147.639 250.212 146.218 207.08 103.26Z" stroke="#D28EF1"/>
<path d="M205.533 110.47C174.585 74.4792 138.57 91.2742 124.431 104.171C98.7805 125.523 78.1895 92.5172 58.0525 107.589C37.9155 122.662 52.6726 136.859 47.6233 175.996C42.574 215.132 74.2342 229.909 81.8797 230.306C89.5253 230.703 110.668 224.935 126.355 249.628C142.042 274.32 174.639 289.444 204.481 277.562C234.323 265.679 242.093 249.07 240.684 226.014C239.276 202.958 219.411 203.718 211.408 178.827C203.404 153.937 244.219 155.459 205.533 110.47Z" stroke="#D38EEF"/>
<path d="M203.832 117.072C176.501 79.759 139.972 93.6468 125.123 105.255C98.3498 124.317 80.8948 90.6436 60.0126 103.958C39.1303 117.272 52.4014 132.169 44.3186 170.04C36.2359 207.91 65.9703 224.553 73.4062 225.475C80.842 226.397 101.957 222.24 115.292 247.452C128.626 272.664 159.247 289.712 189.352 280.191C219.457 270.67 228.383 254.991 228.864 232.375C229.344 209.759 209.88 209.113 204.067 184.244C198.253 159.376 237.996 163.713 203.832 117.072Z" stroke="#D58EEE"/>
<path d="M202.034 123.064C178.352 84.7315 141.569 95.7386 126.137 106.034C98.4625 122.774 84.13 88.6826 62.67 100.222C41.2099 111.762 52.9685 127.231 42.0293 163.636C31.09 200.041 58.7822 218.364 65.9681 219.783C73.154 221.202 94.1046 218.619 105.095 244.162C116.085 269.705 144.611 288.484 174.77 281.292C204.929 274.099 214.906 259.416 217.195 237.372C219.485 215.327 200.533 213.338 196.858 188.655C193.183 163.972 231.637 170.981 202.034 123.064Z" stroke="#D68DEC"/>
<path d="M200.196 128.453C180.167 89.3974 143.382 97.5704 127.494 106.539C99.1383 120.941 87.8924 86.6773 66.0203 96.4391C44.1482 106.201 54.3798 122.115 40.7755 156.873C27.1712 191.632 52.7238 211.442 59.6228 213.328C66.5218 215.214 87.1763 214.156 95.8478 239.846C104.519 265.536 130.849 285.85 160.861 280.937C190.874 276.024 201.792 262.393 205.799 241.043C209.806 219.694 191.47 216.43 189.869 192.09C188.268 167.75 225.234 177.272 200.196 128.453Z" stroke="#D78DEB"/>
<path d="M198.373 133.245C181.973 93.7602 145.432 99.1645 129.212 106.802C100.392 118.87 92.1758 84.6701 70.0543 92.6643C47.9327 100.658 56.6348 116.892 40.5695 149.84C24.5042 182.789 47.8391 203.891 54.4177 206.212C60.9963 208.532 81.2304 208.941 87.6247 234.6C94.019 260.258 118.071 281.906 147.744 279.208C177.417 276.511 189.164 263.979 194.789 243.438C200.414 222.897 182.789 218.435 183.184 194.586C183.578 170.737 218.874 182.602 198.373 133.245Z" stroke="#D98DE9"/>
<path d="M196.62 137.456C183.8 97.825 147.735 100.544 131.306 106.858C102.235 116.61 96.9702 82.7019 74.7578 88.951C52.5453 95.2002 59.7266 111.63 41.4152 142.625C23.1037 173.62 44.1621 195.816 50.3904 198.537C56.6187 201.257 76.3158 203.067 80.4898 228.523C84.6638 253.978 106.378 276.756 135.528 276.196C164.678 275.636 177.139 264.241 184.274 244.612C191.409 224.982 174.581 219.404 176.881 196.186C179.182 172.967 212.645 186.994 196.62 137.456Z" stroke="#DA8DE8"/>
<path d="M194.987 141.101C185.673 101.6 150.306 101.734 133.787 106.739C104.671 114.212 102.262 80.8126 80.1115 85.3515C57.9614 89.8903 63.6418 106.397 43.3077 135.314C22.9737 164.231 41.7161 187.323 47.5679 190.408C53.4197 193.492 72.4715 196.629 74.4966 221.718C76.5217 246.807 95.8563 270.511 124.312 271.998C152.767 273.486 165.825 263.254 174.355 244.629C182.884 226.004 166.931 219.396 171.036 196.938C175.142 174.48 206.63 190.477 194.987 141.101Z" stroke="#DC8DE7"/>
<path d="M193.524 144.203C187.618 105.094 153.156 102.759 136.663 106.48C107.702 111.726 108.032 79.0402 86.0917 81.9149C64.151 84.7897 68.3609 101.257 46.2345 127.993C24.1082 154.73 40.514 178.519 45.967 181.93C51.42 185.341 69.7273 189.723 69.6883 214.292C69.6493 238.86 86.5829 263.287 114.182 266.718C141.782 270.15 155.323 261.099 165.125 243.56C174.927 226.021 159.916 218.476 165.716 196.896C171.516 175.317 200.906 193.088 193.524 144.203Z" stroke="#DD8DE5"/>
<path d="M192.277 146.785C189.66 108.32 156.294 103.645 139.939 106.116C111.323 109.202 114.262 77.4201 92.6708 78.6877C71.0793 79.9554 73.859 96.2718 50.1754 120.745C26.4918 145.218 40.5589 169.509 45.5948 173.208C50.6306 176.908 68.1034 182.448 66.0976 206.351C64.0918 230.254 78.6217 255.202 105.218 260.466C131.813 265.729 145.722 257.866 156.67 241.483C167.617 225.101 153.608 216.712 160.983 196.119C168.358 175.526 195.549 194.867 192.277 146.785Z" stroke="#DF8DE4"/>
<path d="M191.29 148.877C191.821 111.29 159.729 104.418 143.616 105.681C115.525 106.687 120.928 75.9863 99.8173 75.7138C78.7064 75.4413 80.1058 91.5016 55.1029 113.649C30.0999 135.796 41.8444 160.398 46.4484 164.346C51.0525 168.295 67.611 174.9 63.7469 198.004C59.8828 221.109 72.0251 246.382 97.4827 253.354C122.94 260.327 137.103 253.65 149.066 238.482C161.03 223.314 148.069 214.181 156.893 194.669C165.716 175.158 190.627 195.861 191.29 148.877Z" stroke="#E08DE2"/>
<path d="M190.602 150.51C194.121 114.02 163.463 105.105 147.694 105.209C120.296 104.228 128.003 74.7698 107.496 73.0333C86.9881 71.2968 87.0657 87.0017 60.982 106.781C34.8982 126.561 44.3533 151.288 48.515 155.446C52.6767 159.604 68.2513 167.177 62.6475 189.36C57.0438 211.544 66.8321 236.951 91.0312 245.501C115.23 254.052 129.536 248.55 142.382 234.644C155.228 220.738 143.354 210.959 153.494 192.613C163.633 174.267 186.203 196.123 190.602 150.51Z" stroke="#E28CE1"/>
<path d="M190.25 151.718C196.582 116.526 167.499 105.731 152.166 104.732C125.618 101.869 135.459 73.7987 115.668 70.6827C95.8766 67.5666 94.6989 82.8238 67.7718 100.214C40.8447 117.605 48.0603 142.277 51.773 146.605C55.4856 150.934 70.0169 159.374 62.801 180.527C55.5851 201.679 63.0702 227.036 85.9051 237.026C108.74 247.017 123.082 242.672 136.675 230.063C150.269 217.454 139.51 207.128 150.828 190.019C162.145 172.909 182.336 195.708 190.25 151.718Z" stroke="#E38CDF"/>
<path d="M190.266 152.537C199.219 118.826 171.835 106.322 157.024 104.284C131.47 99.6546 143.264 73.0991 124.292 68.6953C105.32 64.2914 102.96 79.0158 75.4244 94.0153C47.8884 109.015 52.93 133.462 56.1907 137.921C59.4514 142.38 72.891 151.585 64.1978 171.609C55.5046 191.634 60.7534 216.763 82.1336 228.051C103.514 239.339 117.788 236.122 131.994 224.833C146.2 213.544 136.574 202.774 148.929 186.958C161.283 171.143 179.075 194.676 190.266 152.537Z" stroke="#E58CDE"/>
<path d="M190.679 153.007C202.049 120.939 176.469 106.904 162.258 103.894C137.828 97.6236 151.385 72.6935 133.325 67.1C115.264 61.5065 111.803 75.6212 83.8875 88.247C55.9721 100.873 58.9198 124.932 61.7293 129.484C64.5388 134.036 76.8489 143.899 66.8196 162.712C56.7902 181.525 59.8847 206.26 79.7349 218.697C99.5851 231.135 113.693 229.01 128.377 219.053C143.062 209.096 134.577 197.98 147.825 183.505C161.073 169.029 176.466 193.091 190.679 153.007Z" stroke="#E68CDC"/>
<path d="M191.512 153.166C205.085 122.885 181.395 107.501 167.854 103.594C144.662 95.8136 159.789 72.6012 142.72 65.9216C125.652 59.242 121.174 72.6781 93.1026 82.9663C65.0308 93.2545 65.9781 116.774 68.3409 121.381C70.7037 125.987 81.8571 136.403 70.6376 153.934C59.4181 171.465 60.454 195.65 78.7145 209.086C96.9749 222.522 110.824 221.447 125.854 212.822C140.884 204.198 133.539 192.835 147.535 179.731C161.531 166.628 174.546 191.017 191.512 153.166Z" stroke="#E88CDB"/>
<path d="M192.786 153.058C208.337 124.685 186.605 108.137 173.795 103.409C151.943 94.2592 168.439 72.8386 152.432 65.1808C136.424 57.5231 131.021 70.2203 103.007 78.2244C74.9938 86.2285 74.0466 109.067 75.9706 113.692C77.8946 118.318 87.8747 129.181 75.6144 145.373C63.3542 161.565 62.4401 185.054 79.0666 199.337C95.693 213.619 109.196 213.544 124.442 206.241C139.688 198.939 133.473 187.424 148.072 175.713C162.671 164.001 173.347 188.524 192.786 153.058Z" stroke="#E98CDA"/>
<path d="M194.517 152.724C211.816 126.359 192.09 108.835 180.064 103.368C159.636 92.9918 177.3 73.4188 162.411 64.8941C147.522 56.3694 141.286 68.2766 113.536 74.0667C85.7852 79.8568 83.0605 101.886 84.5567 106.495C86.053 111.104 94.8538 122.309 81.7042 137.119C68.5547 151.929 65.8105 174.59 80.7742 189.567C95.7379 204.544 108.815 205.413 124.151 199.411C139.486 193.409 134.382 181.836 149.441 171.524C164.5 161.212 172.893 185.681 194.517 152.724Z" stroke="#EB8CD8"/>
<path d="M196.715 152.209C215.528 127.93 197.837 109.616 186.639 103.493C167.703 92.0393 186.332 74.3517 172.607 65.0736C158.882 55.7955 151.911 66.8701 124.617 70.532C97.3237 74.1938 92.948 95.2973 94.0308 99.8564C95.1136 104.416 102.739 115.86 88.8523 129.259C74.9657 142.657 70.5213 164.37 83.8086 179.89C97.0958 195.41 109.673 197.162 124.978 192.43C140.283 187.697 136.261 176.155 151.639 167.237C167.016 158.32 173.199 182.557 196.715 152.209Z" stroke="#EC8CD7"/>
<path d="M199.389 151.555C219.478 129.42 203.831 110.5 193.497 103.807C176.107 91.426 195.499 75.6435 182.972 65.7268C170.445 55.81 162.837 66.019 136.181 67.6525C109.525 69.2861 103.633 89.3609 104.319 93.8392C105.006 98.3175 111.469 109.901 96.9974 121.872C82.5253 133.843 76.5191 154.501 88.1311 170.416C99.7431 186.33 111.755 188.899 126.914 185.396C142.072 181.893 139.098 170.466 154.657 162.926C170.216 155.386 174.277 179.223 199.389 151.555Z" stroke="#ED8BD5"/>
<path d="M202.539 150.806C223.668 130.851 210.059 111.507 200.613 104.33C184.808 91.1728 204.763 77.2977 193.455 66.8573C182.148 56.4169 174.002 65.736 148.151 65.4544C122.3 65.1728 115.034 84.1298 115.344 88.4981C115.653 92.8665 120.979 104.493 106.071 115.033C91.1632 125.574 83.7408 145.086 93.693 161.249C103.645 177.412 115.035 180.727 129.938 178.404C144.842 176.08 142.871 164.849 158.479 158.659C174.086 152.469 176.129 175.749 202.539 150.806Z" stroke="#EF8BD4"/>
<path d="M206.165 150.005C228.098 132.244 216.502 112.653 207.962 105.078C193.763 91.2965 214.086 79.3139 204.008 68.4641C193.93 57.6142 185.347 66.0284 160.454 63.9563C135.56 61.8842 127.067 79.6484 127.022 83.8801C126.977 88.1118 131.196 99.688 115.999 108.808C100.802 117.929 92.1143 136.217 100.436 152.488C108.758 168.758 119.475 172.747 134.022 171.546C148.568 170.345 147.552 159.383 163.081 154.504C178.611 149.625 178.75 172.205 206.165 150.005Z" stroke="#F08BD2"/>
<path d="M210.261 149.193C232.767 133.622 223.142 113.954 215.516 106.066C202.929 91.8101 223.433 81.6889 214.583 70.542C205.734 59.3951 196.812 66.8982 173.012 63.1705C149.212 59.4429 139.643 75.9537 139.268 80.0245C138.893 84.0954 142.045 95.5336 126.701 103.256C111.357 110.979 101.56 127.981 108.293 144.224C115.027 160.468 125.03 165.053 139.127 164.91C153.223 164.766 153.105 154.142 168.436 150.526C183.768 146.91 182.129 168.657 210.261 149.193Z" stroke="#F28BD1"/>
<path d="M214.817 148.412C237.67 135.004 229.959 115.422 223.247 107.307C212.264 92.7232 232.766 84.4165 225.133 73.0822C217.5 61.748 208.335 68.3425 185.75 63.1029C163.165 57.8633 152.673 73.0745 151.993 76.963C151.314 80.8514 153.448 92.0696 138.094 98.4286C122.74 104.788 111.99 120.455 117.19 136.543C122.39 152.631 131.646 157.736 145.208 158.578C158.77 159.421 159.488 149.196 174.509 146.785C189.529 144.375 186.251 165.173 214.817 148.412Z" stroke="#F38BD0"/>
<path d="M219.818 147.702C242.802 136.412 236.932 117.07 231.124 108.81C221.724 94.041 242.052 87.4874 235.612 76.0718C229.172 64.6563 219.86 70.353 198.593 63.7522C177.325 57.1514 166.065 71.0314 165.108 74.7186C164.152 78.4058 165.323 89.328 150.089 94.3686C134.854 99.4092 123.311 113.709 127.044 129.521C130.777 145.333 139.261 150.879 152.212 152.63C165.163 154.381 166.652 144.611 181.258 143.339C195.863 142.067 191.089 161.814 219.818 147.702Z" stroke="#F58BCE"/>
<path d="M225.248 147.098C248.154 137.864 244.04 118.906 239.12 110.581C231.266 95.7647 251.257 90.889 245.977 79.4937C240.698 68.0985 231.33 72.9165 211.466 65.1107C191.601 57.305 179.727 69.8363 178.523 73.3064C177.318 76.7764 177.587 87.333 162.595 91.1109C147.603 94.8887 135.425 107.803 137.767 123.227C140.109 138.652 147.806 144.559 160.079 147.136C172.353 149.714 174.543 140.447 188.638 140.24C202.733 140.033 196.616 158.641 225.248 147.098Z" stroke="#F68BCD"/>
<path d="M231.086 146.638C253.717 139.38 251.261 120.939 247.204 112.626C240.846 97.8927 260.349 94.607 256.188 83.3284C252.027 72.0499 242.69 76.0156 224.297 67.1651C205.904 58.3146 193.568 69.4938 192.145 72.7337C190.722 75.9736 190.156 86.1022 175.52 88.6824C160.884 91.2627 148.227 102.788 149.264 117.722C150.301 132.655 157.203 138.846 168.743 142.163C180.282 145.481 183.1 136.758 196.6 137.536C210.099 138.313 202.796 155.71 231.086 146.638Z" stroke="#F88BCB"/>
<path d="M237.306 146.353C259.48 140.976 258.572 123.174 255.346 114.945C250.424 100.418 269.301 98.6236 266.207 87.552C263.112 76.4805 253.888 79.6276 237.017 69.8948C220.145 60.1621 207.496 69.9995 205.885 72.9991C204.274 75.9987 202.945 85.6443 188.769 87.1008C174.594 88.5572 161.612 98.7034 161.438 113.054C161.265 127.405 167.373 133.8 178.132 137.77C188.891 141.739 192.261 133.593 205.089 135.268C217.917 136.944 209.589 153.074 237.306 146.353Z" stroke="#F98ACA"/>
<path d="M243.883 146.274C265.429 142.669 265.949 125.614 263.516 117.538C259.958 103.333 278.084 102.919 275.997 92.1385C273.911 81.3576 264.877 83.7264 249.559 73.2747C234.242 62.823 221.424 71.3418 219.655 74.094C217.887 76.8462 215.869 85.9614 202.249 86.3756C188.63 86.7897 175.47 95.5803 174.187 109.266C172.905 122.952 178.227 129.477 188.169 134.007C198.112 138.536 201.957 130.993 214.049 133.476C226.142 135.958 216.951 150.781 243.883 146.274Z" stroke="#FB8AC8"/>
<path d="M250.786 146.429C271.55 144.473 273.372 128.261 271.687 120.399C269.409 106.623 286.673 107.473 285.528 97.0587C284.383 86.6447 275.611 88.2815 261.862 77.2733C248.112 66.265 235.264 73.5011 233.368 76.0017C231.473 78.5024 228.846 87.0478 215.865 86.5077C202.885 85.9676 189.69 93.4392 187.407 106.389C185.123 119.34 189.675 125.921 198.774 130.919C207.874 135.916 212.116 128.994 223.419 132.189C234.722 135.384 224.832 148.875 250.786 146.429Z" stroke="#FC8AC7"/>
<path d="M257.984 146.842C277.827 146.401 280.815 131.113 279.829 123.525C278.739 110.272 295.046 112.26 294.77 102.281C294.494 92.3029 286.048 93.2594 273.864 81.8545C261.681 70.4497 248.933 76.4507 246.941 78.6984C244.949 80.9462 241.793 88.8904 229.525 87.4899C217.257 86.0893 204.162 92.2906 200.99 104.446C197.817 116.601 201.622 123.169 209.863 128.542C218.104 133.915 222.666 127.624 233.137 131.434C243.608 135.243 233.179 147.393 257.984 146.842Z" stroke="#FE8AC5"/>
</svg>
