<svg width="250" height="222" viewBox="0 0 250 222" fill="none" xmlns="http://www.w3.org/2000/svg">
<path d="M61.7709 83.2869C43.0315 84.3845 5.58911 98.5194 4.1218 128.309L6.6745 156.76C16.3121 181.116 10.9546 167.548 19.5446 189.457C36.907 233.739 88.7161 215.176 94.0492 210.013C99.3822 204.851 126.292 186.382 163.082 185.732C199.871 185.083 217.902 159.942 208.608 150.953C199.314 141.964 192.539 124.131 190.211 109.716C188.348 98.1844 169.725 91.3475 160.646 89.3705C151.77 85.04 123.121 93.7085 113.659 82.3657C113.128 81.7299 112.755 81.0048 112.223 80.3318C104.517 70.5808 85.4525 81.8999 69.802 82.8165L61.7709 83.2869Z" stroke="#8E68B4"/>
<path d="M63.2822 81.5606C45.0331 83.7097 9.61923 99.6942 10.7993 128.941L15.7973 156.647C27.3716 179.938 20.9349 166.962 31.2687 187.917C52.1556 230.272 101.245 209.129 106.013 203.769C110.78 198.409 135.503 178.786 171.462 176.041C207.421 173.295 222.865 147.65 212.977 139.383C203.088 131.116 194.889 114.046 191.344 100.068C188.507 88.8862 169.675 83.2611 160.613 81.8463C151.544 78.116 124.258 88.2449 113.999 77.6834C113.423 77.0913 112.994 76.4029 112.414 75.7746C104.014 66.6706 86.3442 78.8447 71.1032 80.6395L63.2822 81.5606Z" stroke="#916AB3"/>
<path d="M64.4854 79.9811C46.8149 83.1303 13.561 100.803 17.2838 129.357L24.6075 156.183C37.9795 178.313 30.5411 165.984 42.494 185.898C66.6534 226.15 112.838 202.645 117.033 197.126C121.228 191.608 143.699 170.987 178.649 166.239C213.599 161.491 226.461 135.509 216.058 127.985C205.656 120.462 196.133 104.227 191.436 90.752C187.678 79.9716 168.754 75.5463 159.762 74.6812C150.559 71.5506 124.745 83.027 113.778 73.2795C113.163 72.7331 112.682 72.084 112.06 71.5024C103.039 63.0747 86.8162 76.0013 72.0584 78.6314L64.4854 79.9811Z" stroke="#946CB1"/>
<path d="M65.4004 78.5655C48.3902 82.6588 17.4099 101.853 23.5578 129.572L33.0768 155.396C48.1005 176.277 39.7416 164.643 53.1826 183.439C80.3498 221.431 123.468 195.79 127.088 190.151C130.707 184.513 150.88 163.053 184.654 156.405C218.428 149.757 228.73 123.603 217.893 116.84C207.057 110.076 196.316 94.7405 190.538 81.8272C185.916 71.4967 167.015 68.2521 158.142 67.9211C148.864 65.3859 124.618 78.092 113.034 69.185C112.384 68.6857 111.857 68.0783 111.197 67.5449C101.633 59.8175 86.8968 73.3926 72.6905 76.8112L65.4004 78.5655Z" stroke="#976EB0"/>
<path d="M66.0483 77.3291C49.7732 82.3063 21.1614 102.85 29.6052 129.605L41.1793 154.311C57.7029 173.87 48.5081 162.972 63.301 180.583C93.2008 216.178 133.117 188.634 136.162 182.913C139.207 177.191 157.051 155.051 189.495 146.615C221.939 138.18 229.72 112.014 218.529 106.021C207.338 100.028 195.49 85.6468 188.707 73.3503C183.28 63.513 164.512 61.4229 155.807 61.6075C146.511 59.66 123.916 73.4738 111.806 65.4275C111.127 64.9764 110.558 64.4126 109.866 63.9289C99.8353 56.9203 86.6159 71.0393 73.0234 75.196L66.0483 77.3291Z" stroke="#9970AE"/>
<path d="M66.4519 76.2859C50.9792 82.0831 24.8124 103.803 35.4125 129.471L48.8929 152.959C66.76 171.132 56.8163 161.005 72.8208 177.372C105.17 210.454 141.773 181.245 144.247 175.478C146.722 169.711 162.224 147.047 193.199 136.944C224.173 126.84 229.484 100.818 218.02 95.6006C206.555 90.3833 193.711 77.0042 186.003 65.3728C179.836 56.0677 161.307 55.0994 152.813 55.7784C143.556 54.407 122.68 69.2037 110.137 62.032C109.434 61.6299 108.828 61.1114 108.109 60.6782C97.6893 54.4018 86.0053 68.9599 73.083 73.8015L66.4519 76.2859Z" stroke="#9C71AD"/>
<path d="M66.6345 75.448C52.0242 81.998 28.3603 104.718 40.9676 129.192L56.1982 151.37C75.2491 168.103 64.6455 158.778 81.7182 173.854C116.226 204.326 149.431 173.691 151.343 167.914C153.256 162.138 166.416 139.105 195.796 127.461C225.176 115.816 228.085 90.0858 216.425 85.6442C204.766 81.2026 191.043 68.8653 182.492 57.9417C175.651 49.2028 157.461 49.3173 149.221 50.4669C140.055 49.6568 120.955 65.3095 108.07 59.02C107.348 58.6675 106.711 58.1955 105.97 57.8134C95.2386 52.2772 85.0981 67.1706 72.8961 72.6409L66.6345 75.448Z" stroke="#9F73AC"/>
<path d="M66.6206 74.8258C52.9249 82.0589 31.8033 105.603 46.2609 128.784L63.0793 149.573C83.1521 164.826 71.9787 156.325 89.9742 170.072C126.347 197.859 156.094 166.039 157.455 160.288C158.817 154.536 169.653 131.289 197.328 118.234C225.002 105.18 225.589 79.8841 213.812 76.2133C202.035 72.5425 187.552 61.2782 178.243 51.0988C170.795 42.9552 153.039 44.1078 145.093 45.7021C136.07 45.4354 118.786 61.8157 105.65 56.4103C104.914 56.1073 104.251 55.6827 103.494 55.3519C92.5276 50.559 83.9284 65.685 72.4902 71.7259L66.6206 74.8258Z" stroke="#A275AA"/>
<path d="M66.4353 74.428C53.6984 82.2725 35.1404 106.465 51.2845 128.268L69.5239 147.601C90.4556 161.343 78.8032 153.684 97.575 166.075C135.517 191.121 161.77 158.356 162.596 152.663C163.422 146.971 171.964 123.656 197.838 109.329C223.712 95.0025 222.069 70.2742 210.251 67.3642C198.432 64.4542 183.307 54.286 173.327 44.8809C165.344 37.3569 148.111 39.4977 140.492 41.5085C131.661 41.7642 116.222 58.7437 102.925 54.218C102.18 53.9643 101.495 53.5878 100.727 53.3082C89.6017 49.2563 82.5314 64.5147 71.894 71.0661L66.4353 74.428Z" stroke="#A577A9"/>
<path d="M66.104 74.2614C54.3622 82.644 38.3712 107.311 56.0327 127.663L75.5226 145.485C97.1501 157.698 85.1095 150.89 104.511 161.908C143.727 184.178 166.476 150.706 166.784 145.104C167.091 139.502 173.386 116.264 197.379 100.805C221.373 85.3462 217.605 61.3109 205.818 59.147C194.031 56.9832 178.382 47.926 167.821 39.3193C159.372 32.434 142.744 35.508 135.486 37.9057C126.891 38.6601 113.312 56.1108 99.9412 52.4549C99.1917 52.25 98.4904 51.9218 97.7166 51.6928C86.5061 48.3751 80.9426 63.668 71.1362 70.6688L66.104 74.2614Z" stroke="#A779A7"/>
<path d="M65.6528 74.331C54.9343 83.1775 41.4963 108.149 60.5021 126.989L81.0697 143.257C103.232 153.933 90.8927 147.981 110.779 157.618C150.974 177.097 170.233 143.152 170.043 137.671C169.853 132.19 173.959 109.166 196.008 92.7177C218.056 76.2698 212.279 53.0435 200.594 51.6066C188.909 50.1697 172.854 42.2304 161.801 34.4398C152.958 28.2073 137.01 32.1556 130.141 34.9088C121.823 36.1357 110.107 53.9313 96.7465 51.1297C95.9976 50.9726 95.2849 50.6926 94.5102 50.5135C83.2863 47.9184 79.1981 63.1514 70.2464 70.5396L65.6528 74.331Z" stroke="#AA7AA6"/>
<path d="M65.1076 74.6403C55.4328 83.8761 44.517 108.986 64.6911 126.266L86.1628 140.949C108.7 150.09 96.1513 144.993 116.379 153.251C157.264 169.944 173.07 135.754 172.406 130.422C171.741 125.09 173.731 102.412 193.785 85.1189C213.839 67.8263 206.177 45.5151 194.661 44.7818C183.145 44.0485 166.8 37.2262 155.344 30.2632C146.18 24.6927 130.978 29.4524 124.523 32.5285C116.523 34.1995 106.658 52.2158 93.389 50.2478C92.6452 50.1375 91.926 49.9053 91.1552 49.7749C79.9872 47.8862 77.3341 62.9688 69.254 70.6822L65.1076 74.6403Z" stroke="#AD7CA5"/>
<path d="M64.4944 75.1905C55.8757 84.741 47.4351 109.828 68.6003 125.512L90.8028 138.592C113.558 146.211 100.888 141.961 121.317 148.853C162.609 162.782 175.02 128.57 173.907 123.413C172.793 118.256 172.75 96.0471 190.777 78.0545C208.804 60.0618 199.389 38.7619 188.105 38.7048C176.821 38.6477 160.301 32.9339 148.531 26.8038C139.116 21.8998 124.721 27.4047 118.701 30.7702C111.053 32.8549 103.016 50.971 89.9164 49.811C89.1821 49.746 88.4611 49.5608 87.6988 49.4778C76.6531 48.2751 75.3863 63.1213 68.1882 71.0975L64.4944 75.1905Z" stroke="#B07EA3"/>
<path d="M63.8388 75.9816C56.2807 85.7729 50.2531 110.683 72.2319 124.747L94.9934 136.217C117.817 142.338 105.107 138.923 125.602 144.468C167.025 155.675 176.122 121.653 174.587 116.695C173.053 111.738 171.071 90.1145 187.053 71.566C203.035 53.0174 192.007 32.814 181.014 33.4022C170.022 33.9904 153.437 29.3691 141.441 24.0715C131.844 19.8334 118.309 26.015 112.741 29.6355C105.476 32.1018 99.2323 50.2006 86.376 49.8184C85.6553 49.797 84.9371 49.6577 84.1875 49.6204C73.3271 49.0795 73.3903 63.608 67.078 71.7854L63.8388 75.9816Z" stroke="#B380A2"/>
<path d="M63.1662 77.0115C56.6658 86.971 52.9745 111.556 75.5908 123.99L98.7421 133.854C121.487 138.51 108.821 135.91 129.249 140.138C170.538 148.683 176.421 115.056 174.494 110.318C172.568 105.581 168.752 84.6512 182.685 65.6892C196.619 46.7272 184.124 27.6947 173.478 28.8939C162.832 30.093 146.289 26.5413 134.153 22.0698C124.444 18.4926 111.812 25.28 106.71 29.1209C99.8545 31.9352 95.3587 49.9043 82.8143 50.2654C82.1111 50.2856 81.4 50.1911 80.6674 50.1975C70.0514 50.2903 71.3811 64.4253 65.9521 72.7431L63.1662 77.0115Z" stroke="#B681A0"/>
<path d="M62.5011 78.2764C57.0481 88.333 55.6029 112.454 78.6827 123.258L102.059 131.533C124.585 134.764 112.04 132.958 132.276 135.906C173.176 141.864 175.964 108.824 173.677 104.326C171.391 99.8283 165.853 79.6903 177.75 60.4545C189.647 41.2188 175.834 23.4205 165.585 25.1934C155.336 26.9662 138.938 24.4546 126.745 20.7973C116.991 17.8714 105.298 25.1924 100.671 29.2186C94.2494 32.3463 91.4446 50.0785 79.2763 51.1445C78.5942 51.2043 77.8944 51.1528 77.1824 51.2008C66.866 51.896 69.3923 65.5675 64.8381 73.9664L62.5011 78.2764Z" stroke="#B8839F"/>
<path d="M61.8675 79.7711C57.4445 89.856 58.1429 113.382 81.516 122.569L104.957 129.28C127.131 131.138 114.782 130.097 134.705 131.81C174.976 135.272 174.805 103 172.191 98.759C169.576 94.5178 162.439 75.2603 172.324 55.887C182.209 36.5137 167.233 20.0015 157.427 22.3081C147.621 24.6148 131.464 23.1074 119.295 20.247C109.56 17.9587 98.8336 25.74 94.6874 29.9167C88.7193 33.3223 87.5393 50.7166 75.8058 52.4455C75.1481 52.5424 74.4635 52.5323 73.7757 52.6194C63.8099 53.8825 67.4571 67.0264 63.7631 75.449L61.8675 79.7711Z" stroke="#BB859E"/>
<path d="M61.2884 81.4888C57.8713 91.5357 60.5993 114.346 84.1004 121.939L107.451 127.124C129.15 127.667 117.065 127.358 136.565 127.888C175.978 128.959 173 97.6244 170.092 93.6538C167.183 89.6832 158.573 71.3851 166.486 52.0059C174.399 32.6268 158.415 17.4411 149.092 20.2394C139.769 23.0378 123.945 22.4931 111.877 20.4073C102.223 18.7386 92.4834 26.9067 88.8204 31.1993C83.3207 34.8466 83.6902 51.8083 72.445 54.1552C71.8146 54.2868 71.1488 54.3159 70.4884 54.4397C60.9193 56.2335 65.6068 68.7923 62.7529 77.1831L61.2884 81.4888Z" stroke="#BE879C"/>
<path d="M60.7857 83.4213C58.344 93.3668 62.9776 115.351 86.447 121.384L109.561 125.088C130.667 124.382 118.911 124.77 137.883 124.175C176.228 122.974 170.609 92.7304 167.441 89.042C164.272 85.3536 154.323 68.0836 160.315 48.8248C166.308 29.5661 149.473 15.7361 140.668 18.9822C131.863 22.2283 116.459 22.5993 104.565 21.261C95.0501 20.1904 86.3088 28.6719 83.1275 33.0464C78.1075 36.8991 79.9429 53.3406 69.2335 56.2578C68.6332 56.4213 67.9895 56.4874 67.3593 56.6451C58.2286 58.9303 63.8713 70.8529 61.8321 79.159L60.7857 83.4213Z" stroke="#C1899B"/>
<path d="M60.38 85.5588C58.8775 95.3429 65.2837 116.4 88.5687 120.918L111.306 123.198C131.713 121.313 120.346 122.357 138.693 120.703C175.774 117.359 167.694 88.3477 164.3 84.9507C160.907 81.5536 149.755 65.3698 153.891 46.3516C158.027 27.3334 140.498 14.8771 132.242 18.5255C123.985 22.1739 109.079 23.4088 97.4282 22.7866C88.1076 22.2889 80.3684 31.0111 77.6638 35.4344C73.1308 39.456 76.3411 55.2972 66.2092 58.7348C65.6412 58.9275 65.0228 59.0282 64.4254 59.2169C55.7694 61.9519 62.2789 73.1942 61.024 81.3656L60.38 85.5588Z" stroke="#C48A99"/>
<path d="M60.0907 87.8905C59.4853 97.457 67.5236 117.499 90.4793 120.556L112.71 121.474C132.32 118.49 121.397 120.146 139.03 117.502C174.671 112.157 164.319 84.5017 160.736 81.4024C157.152 78.3031 144.939 63.2532 147.293 44.5889C149.648 25.9246 131.579 14.8488 123.896 18.8529C116.213 22.857 101.876 24.8998 90.5327 24.9582C81.4579 25.005 74.7169 33.8965 72.4808 38.3364C68.438 42.4908 72.9259 57.6595 63.4071 61.5658C62.8735 61.7848 62.283 61.9175 61.7205 62.1343C53.5707 65.2759 60.8557 75.8008 60.3501 83.7905L60.0907 87.8905Z" stroke="#C78C98"/>
<path d="M59.9358 90.4042C60.1807 99.7011 69.7041 118.651 92.1942 120.308L113.797 119.936C132.523 115.935 122.092 118.158 138.934 114.598C172.976 107.402 160.551 81.2124 156.812 78.4148C153.073 75.6172 139.942 61.7381 140.6 43.5334C141.258 25.3288 122.803 15.6296 115.712 19.9422C108.622 24.2547 94.9189 27.0457 83.9416 27.7455C75.1598 28.3054 69.4059 37.2966 67.6267 41.7223C64.0734 45.974 69.7362 60.4061 60.8598 64.7281C60.3622 64.9704 59.802 65.1323 59.2763 65.3742C51.6589 68.8781 59.6262 78.6554 59.8308 86.4199L59.9358 90.4042Z" stroke="#C98E97"/>
<path d="M59.9315 93.0869C60.9754 102.066 71.8318 119.857 93.7298 120.186L114.593 118.603C132.359 113.671 122.462 116.413 138.444 112.015C170.747 103.125 156.456 78.4949 152.597 76.0005C148.738 73.5061 134.832 60.8242 133.888 43.1767C132.944 25.5293 114.251 17.1925 107.767 21.7659C101.283 26.3394 88.2706 29.8155 77.7133 31.1144C69.2674 32.1535 64.4822 41.1771 63.1454 45.559C60.0775 49.8732 66.8075 63.5132 58.5967 68.1969C58.1365 68.4595 57.6087 68.6479 57.1211 68.9116C50.0572 72.7327 58.6124 81.7393 59.4842 89.2386L59.9315 93.0869Z" stroke="#CC9095"/>
<path d="M60.0927 95.9244C61.8801 104.543 73.9139 121.122 95.1033 120.201L115.127 117.49C131.868 111.718 122.541 114.928 137.604 109.773C168.049 99.3536 152.103 76.3597 148.157 74.1675C144.211 71.9753 129.674 60.5064 127.232 43.5052C124.789 26.504 106.002 19.5051 100.133 24.2919C94.2637 29.0787 81.991 33.1745 71.9017 35.0273C63.8303 36.5095 59.9887 45.5008 59.0768 49.8112C56.4863 54.154 64.1726 66.955 56.6444 71.9461C56.2224 72.2258 55.7287 72.4378 55.2804 72.7202C48.7856 76.8127 57.8339 85.0327 59.3266 92.2307L60.0927 95.9244Z" stroke="#CF9294"/>
<path d="M60.4322 98.902C62.9044 107.122 75.9575 122.447 96.3327 120.36L115.428 116.61C131.088 110.092 122.363 113.718 136.457 107.89C164.944 96.1096 147.559 74.8124 143.56 72.9191C139.561 71.0258 124.534 60.7754 120.703 44.5002C116.872 28.2251 98.13 22.5304 92.8789 27.4834C87.6277 32.4365 76.1353 37.0844 66.5561 39.4435C58.8928 41.3307 55.9633 50.2282 55.4565 54.4411C53.332 58.7802 61.861 70.7039 55.0261 75.9479C54.6429 76.2419 54.1847 76.4744 53.7765 76.7725C47.8613 81.0906 57.3081 88.5147 59.3727 95.3794L60.4322 98.902Z" stroke="#D29392"/>
<path d="M60.9614 102.004C64.0566 109.791 77.9699 123.833 97.4367 120.669L115.525 115.976C130.062 108.805 121.962 112.795 135.049 106.379C161.499 93.4097 142.891 73.8534 138.871 72.2534C134.851 70.6534 119.473 61.6169 114.371 46.1382C109.269 30.6595 90.7028 26.2261 86.0679 31.2991C81.433 36.372 70.7533 41.5032 61.7205 44.3191C54.4942 46.5718 52.4394 55.3175 52.3153 59.4088C50.6422 63.7132 59.8986 74.7303 53.7617 80.1733C53.4176 80.4785 52.9959 80.7286 52.628 81.039C47.2979 85.5372 57.0498 92.1633 59.6348 98.6667L60.9614 102.004Z" stroke="#D59591"/>
<path d="M61.6895 105.214C65.3439 112.54 79.9585 125.281 98.4345 121.136L115.451 115.595C128.832 107.869 121.376 112.168 133.425 105.25C157.779 91.2665 138.166 73.4788 134.156 72.1643C130.146 70.8499 114.554 63.013 108.301 48.3914C102.048 33.7697 83.7835 30.5464 79.758 35.6942C75.7325 40.8419 65.8899 46.3866 57.4334 49.6083C50.6682 52.1857 49.4453 60.7256 49.6794 64.6734C48.4402 68.9139 58.3079 79.0037 52.8677 84.5926C52.5627 84.9059 52.1782 85.1706 51.8507 85.4904C47.1058 90.1237 57.0713 95.9561 60.1233 102.075L61.6895 105.214Z" stroke="#D79790"/>
<path d="M62.6238 108.516C66.7718 115.358 81.9303 126.792 99.3452 121.764L115.235 115.475C127.44 107.289 120.639 111.845 131.632 104.511C153.851 89.6872 133.449 73.68 129.478 72.6413C125.507 71.6027 109.832 64.9416 102.554 51.2277C95.277 37.5139 77.429 35.4416 74.0012 40.6205C70.5734 45.7993 61.5843 51.6876 53.7279 55.2632C47.4428 58.1236 47.0038 66.4079 47.57 70.1925C46.7441 74.3416 57.1075 83.4923 52.357 89.1752C52.0907 89.4938 51.7437 89.7701 51.4563 90.0961C47.2921 94.8206 57.3819 99.8702 60.8461 105.584L62.6238 108.516Z" stroke="#DA998E"/>
<path d="M63.7702 111.894C68.345 118.233 83.893 128.365 100.189 122.555L114.911 115.62C125.929 107.069 119.789 111.829 129.716 104.165C149.783 88.6743 128.803 74.4435 124.899 73.669C120.995 72.8945 105.362 67.3768 97.1879 54.6112C89.0143 41.8455 71.6901 40.8584 68.8439 46.0265C65.9977 51.1945 57.8703 57.3569 50.6315 61.2337C44.8405 64.3351 45.1333 72.3185 46.0036 75.9225C45.568 79.9549 56.3128 88.1632 52.2394 93.8899C52.0111 94.2109 51.7015 94.4959 51.4535 94.8253C47.8608 99.5982 57.9889 103.882 61.8096 109.177L63.7702 111.894Z" stroke="#DD9B8D"/>
<path d="M65.1321 115.329C70.0664 121.153 85.8533 130 100.984 123.512L114.509 116.032C124.342 107.211 118.862 112.121 127.725 104.212C145.639 88.2255 124.289 75.752 120.477 75.2283C116.665 74.7045 101.194 70.2892 92.2539 58.5022C83.314 46.7152 66.6109 46.741 64.3258 51.8585C62.0408 56.9759 54.7754 63.3437 48.1656 67.4691C42.8777 70.7694 43.8462 78.4113 44.9915 81.8197C44.921 85.7124 55.9347 92.9832 52.5206 98.7055C52.3293 99.0262 52.0568 99.317 51.8474 99.6469C48.8121 104.427 58.8964 107.968 63.0174 112.832L65.1321 115.329Z" stroke="#E09C8B"/>
<path d="M66.7112 118.805C71.9379 124.107 87.8184 131.695 101.752 124.633L114.062 116.711C122.72 107.711 117.894 112.722 125.702 104.649C141.484 88.334 119.964 77.584 116.268 77.2961C112.572 77.0081 97.3751 73.6464 87.7994 62.8584C78.2236 52.0703 62.2288 53.0312 60.4804 58.0606C58.7321 63.09 52.3215 69.5961 46.3458 73.9178C41.5653 77.3751 43.1501 84.6399 44.5401 87.8402C44.8073 91.5725 55.9809 97.9188 53.2032 103.591C53.0475 103.909 52.8116 104.202 52.6393 104.53C50.1436 109.279 60.1061 112.105 64.4712 116.533L66.7112 118.805Z" stroke="#E39E8A"/>
<path d="M68.5075 122.306C73.96 127.083 89.7948 133.449 102.51 125.917L113.599 117.655C121.105 108.565 116.921 113.625 123.693 105.471C137.381 88.9882 115.883 79.9141 112.324 79.8455C108.766 79.7769 93.9477 77.4131 83.866 67.6342C73.7843 57.8553 58.5742 59.669 57.3345 64.5755C56.0947 69.482 50.5242 76.0613 45.182 80.5276C40.9082 84.1007 43.0472 90.9581 44.6509 93.9401C45.2269 97.4937 56.4548 102.936 54.2862 108.515C54.1646 108.828 53.9643 109.122 53.8277 109.445C51.8492 114.124 61.617 116.269 66.1707 120.258L68.5075 122.306Z" stroke="#E6A089"/>
<path d="M70.5188 125.814C76.1317 130.068 91.7889 135.26 103.278 127.362L113.152 118.857C119.536 109.764 115.977 114.827 121.741 106.666C133.391 90.1722 112.097 82.713 108.695 82.8463C105.293 82.9795 90.9491 81.5511 80.4897 72.7818C70.0303 64.0125 55.6704 66.5927 54.9078 71.3444C54.1453 76.096 49.3931 82.6858 44.6777 87.2465C40.9054 90.895 43.5344 97.3198 45.3205 100.076C46.1748 103.435 57.3564 108.002 55.7649 113.447C55.6757 113.752 55.5097 114.044 55.4071 114.36C53.9201 118.937 63.4256 120.438 68.1133 123.991L70.5188 125.814Z" stroke="#E8A287"/>
<path d="M72.7413 129.314C78.451 133.053 93.8069 137.124 104.073 128.963L112.75 120.313C118.052 111.297 115.095 116.317 119.887 108.224C129.572 91.8662 108.653 85.9489 105.424 86.2654C102.196 86.5818 88.4126 86.0207 77.701 78.2519C66.9893 70.4831 53.5337 73.7406 53.2139 78.3084C52.8942 82.8762 48.932 89.417 44.8312 94.0232C41.5506 97.7082 44.6041 103.68 46.5409 106.206C47.6419 109.357 58.6819 113.084 57.6319 118.358C57.5731 118.654 57.44 118.941 57.3692 119.247C56.3445 123.689 65.5259 124.589 70.2943 127.711L72.7413 129.314Z" stroke="#EBA386"/>
<path d="M75.1695 132.789C80.9144 136.025 95.8544 139.04 104.914 130.714L112.421 122.012C116.689 113.15 114.308 118.085 118.171 110.128C125.978 94.046 105.594 89.5861 102.553 90.0663C99.512 90.5465 86.366 90.7796 75.5238 83.9929C64.6816 77.2063 52.1731 81.0496 52.2591 85.4079C52.3451 89.7662 49.1383 96.2018 45.6345 100.807C42.8316 104.491 46.2431 109.996 48.2992 112.288C49.6145 115.222 60.4236 118.149 59.8761 123.219C59.8454 123.503 59.7434 123.783 59.7024 124.079C59.1078 128.356 67.9094 128.701 72.7074 131.403L75.1695 132.789Z" stroke="#EEA584"/>
<path d="M77.7961 136.226C83.5175 138.974 97.9368 141.004 105.816 132.609L112.191 123.945C115.483 115.308 113.646 120.117 116.63 112.361C122.661 96.6843 102.958 93.5872 100.116 94.211C97.2746 94.8348 84.8326 95.7847 73.9767 89.953C63.1208 84.1212 51.5905 88.458 52.0432 92.5844C52.4959 96.7107 50.0039 102.989 47.0747 107.548C44.7313 111.195 48.4341 116.225 50.5784 118.283C52.075 120.991 62.5709 123.166 62.4836 128.002C62.4787 128.273 62.4059 128.545 62.3921 128.827C62.1927 132.914 70.5657 132.753 75.344 135.048L77.7961 136.226Z" stroke="#F1A783"/>
<path d="M80.6122 139.609C86.2547 141.89 100.059 143.012 106.795 134.64L112.086 126.097C114.464 117.751 113.136 122.399 115.299 114.902C119.669 99.7497 100.779 97.9116 98.1454 98.6585C95.5119 99.4053 83.83 100.991 73.0716 96.079C62.3133 91.1667 51.7809 95.9038 52.5593 99.7794C53.3377 103.655 51.515 109.727 49.1329 114.199C47.2272 117.776 51.1549 122.326 53.357 124.153C55.0018 126.63 65.1093 128.106 65.4375 132.682C65.4559 132.939 65.4101 133.199 65.4211 133.466C65.5796 137.341 73.4817 136.726 78.194 138.631L80.6122 139.609Z" stroke="#F4A982"/>
<path d="M83.6075 142.925C89.1189 144.764 102.225 145.059 107.865 136.799L112.129 128.456C113.664 120.46 112.806 124.913 114.209 117.729C117.046 103.208 99.0851 102.518 96.6661 103.367C94.2472 104.216 83.3706 106.354 72.8144 102.318C62.2582 98.2819 52.732 103.327 53.7939 106.936C54.8557 110.546 53.6518 116.369 51.7852 120.714C50.2919 124.191 54.3791 128.261 56.6094 129.862C58.3694 132.105 68.0212 132.939 68.7181 137.234C68.7571 137.474 68.736 137.722 68.769 137.974C69.2465 141.617 76.6425 140.601 81.2454 142.137L83.6075 142.925Z" stroke="#F7AB80"/>
<path d="M86.7703 146.161C92.1027 147.586 104.439 147.143 109.04 139.075L112.342 131.006C113.109 123.411 112.679 127.641 113.391 120.816C114.83 107.023 97.9 107.361 95.6994 108.291C93.4987 109.222 83.462 111.828 73.2053 108.617C62.9485 105.407 54.4256 110.668 55.7276 114C57.0296 117.331 56.39 122.866 55.0032 127.05C53.8938 130.397 58.0767 133.996 60.3068 135.376C62.1495 137.387 71.2864 137.639 72.3034 141.634C72.3604 141.858 72.3615 142.092 72.4136 142.327C73.1696 145.722 80.0315 144.361 84.4849 145.551L86.7703 146.161Z" stroke="#F9AC7F"/>
<path d="M90.0872 149.307C95.1971 150.347 106.704 149.258 110.332 141.458L112.743 133.728C112.823 126.58 112.776 130.561 112.868 124.138C113.056 111.154 97.2414 112.398 95.2602 113.388C93.279 114.379 84.1057 117.367 74.2376 114.925C64.3694 112.482 56.8359 117.871 58.3343 120.917C59.8327 123.963 59.6994 129.176 58.7533 133.166C57.9964 136.358 62.2132 139.496 64.4163 140.665C66.3095 142.445 74.8812 142.181 76.1686 145.863C76.2408 146.07 76.2615 146.289 76.33 146.505C77.3228 149.64 83.6298 147.992 87.8973 148.861L90.0872 149.307Z" stroke="#FCAE7D"/>
</svg>
